<svg style="margin: auto;" color-interpolation-filters="sRGB" preserveAspectRatio="xMidYMid meet" viewBox="70 60 180 130" height="20" width="23" version="1.0" data-v-0dd9719b="" xmlns:xlink="http://www.w3.org/1999/xlink" xmlns="http://www.w3.org/2000/svg">
     
    <g transform="translate(90.95000457763672,68.11000061035156)" class="bordersvg b-d1" fill="#ffffff" data-v-0dd9719b="">
        <polyline points="84.04999542236328,30 84.04999542236328,10 10,10 10,113.78000259399414 84.04999542236328,113.78000259399414 84.04999542236328,93.78000259399414" fill="#ffffff" fill-opacity="0" stroke-width="3" stroke="#ffffff"></polyline>
        <polyline points="74.04999542236328,10 74.04999542236328,0 0,0 0,103.78000259399414 10,103.78000259399414" fill="#ffffff" fill-opacity="0" stroke-width="3" stroke="#ffffff"></polyline>
        <g transform="translate(10,30)">
            <g>
                <rect fill-opacity="0" height="63.78000259399414" width="148.09999084472656" y="0" x="0" class="i-icon-bg" stroke-width="2" data-gra="graph-name-bg"></rect>
            </g>
            <g transform="translate(10,3)">
                <g class="tp-name" fill-rule="" data-gra="path-name">
                    <g transform="scale(1)">
                        <g>
                            <path transform="translate(-3.299999952316284, 46.5)" d="M17.04-43.26L17.04-43.26Q20.58-43.26 22.5-42.51 24.42-41.76 25.8-40.92L25.8-40.92Q26.52-40.5 26.97-40.29 27.42-40.08 27.84-40.08L27.84-40.08Q28.8-40.08 29.16-42.72L29.16-42.72 30.54-42.72Q30.48-41.58 30.39-39.99 30.3-38.4 30.27-35.82 30.24-33.24 30.24-29.04L30.24-29.04 28.86-29.04Q28.62-32.16 27.42-35.1 26.22-38.04 24.03-39.93 21.84-41.82 18.66-41.82L18.66-41.82Q15.78-41.82 13.92-40.2 12.06-38.58 12.06-35.7L12.06-35.7Q12.06-33.3 13.26-31.59 14.46-29.88 16.77-28.26 19.08-26.64 22.38-24.36L22.38-24.36Q25.26-22.5 27.54-20.64 29.82-18.78 31.2-16.44 32.58-14.1 32.58-10.86L32.58-10.86Q32.58-6.9 30.51-4.32 28.44-1.74 25.08-0.45 21.72 0.84 17.7 0.84L17.7 0.84Q13.98 0.84 11.76 0.12 9.54-0.6 8.04-1.38L8.04-1.38Q6.72-2.22 6-2.22L6-2.22Q5.04-2.22 4.68 0.42L4.68 0.42 3.3 0.42Q3.42-1.02 3.45-2.94 3.48-4.86 3.51-7.95 3.54-11.04 3.54-15.78L3.54-15.78 4.92-15.78Q5.16-11.82 6.27-8.37 7.38-4.92 9.69-2.82 12-0.72 15.84-0.72L15.84-0.72Q18.96-0.72 21.12-2.4 23.28-4.08 23.28-7.44L23.28-7.44Q23.28-11.16 20.76-13.59 18.24-16.02 14.28-18.6L14.28-18.6Q11.46-20.46 9-22.32 6.54-24.18 5.07-26.58 3.6-28.98 3.6-32.28L3.6-32.28Q3.6-36.06 5.49-38.49 7.38-40.92 10.47-42.09 13.56-43.26 17.04-43.26ZM65.52-31.02L65.52-31.02 65.52-29.82Q64.38-29.52 63.36-28.41 62.34-27.3 61.38-24.66L61.38-24.66 52.92-0.9 50.7 3.3 37.62-26.4Q36.6-28.74 35.61-29.25 34.62-29.76 33.9-29.76L33.9-29.76 33.9-31.02Q35.88-30.84 38.01-30.75 40.14-30.66 42.12-30.66L42.12-30.66Q44.58-30.66 46.62-30.78 48.66-30.9 50.46-31.02L50.46-31.02 50.46-29.76Q49.26-29.76 48.21-29.61 47.16-29.46 46.77-28.77 46.38-28.08 47.1-26.4L47.1-26.4 54.66-8.16 54.12-7.8 58.56-20.22Q60.24-25.08 59.1-27.33 57.96-29.58 55.08-29.82L55.08-29.82 55.08-31.02Q56.46-30.96 58.08-30.9 59.7-30.84 60.9-30.84L60.9-30.84Q62.1-30.84 63.42-30.9 64.74-30.96 65.52-31.02ZM51.48-0.78L52.92-0.9 50.64 5.52Q49.5 8.58 48 9.78L48 9.78Q47.16 10.5 45.84 10.89 44.52 11.28 42.78 11.28L42.78 11.28Q41.34 11.28 39.81 10.8 38.28 10.32 37.26 9.24 36.24 8.16 36.24 6.48L36.24 6.48Q36.24 4.62 37.56 3.51 38.88 2.4 41.04 2.4L41.04 2.4Q43.02 2.4 44.28 3.36 45.54 4.32 45.54 6.18L45.54 6.18Q45.54 7.38 44.79 8.46 44.04 9.54 42.54 10.08L42.54 10.08Q42.84 10.14 43.26 10.14 43.68 10.14 43.92 10.14L43.92 10.14Q45.72 10.14 47.1 9 48.48 7.86 49.38 5.4L49.38 5.4 51.48-0.78ZM79.5-40.86L79.5-40.86 79.5-31.02 86.58-31.02 86.58-29.82 79.5-29.82 79.5-5.58Q79.5-3.78 80.16-3.03 80.82-2.28 82.14-2.28L82.14-2.28Q83.22-2.28 84.3-3.09 85.38-3.9 86.22-5.88L86.22-5.88 87.24-5.34Q86.28-2.64 84.33-0.9 82.38 0.84 79.02 0.84L79.02 0.84Q77.04 0.84 75.54 0.33 74.04-0.18 73.02-1.2L73.02-1.2Q71.7-2.52 71.28-4.47 70.86-6.42 70.86-9.54L70.86-9.54 70.86-29.82 65.82-29.82 65.82-31.02 70.86-31.02 70.86-38.94Q73.38-38.94 75.51-39.39 77.64-39.84 79.5-40.86ZM96.24-46.5L96.24-46.5Q98.76-46.5 100.23-45.27 101.7-44.04 101.7-41.88L101.7-41.88Q101.7-39.72 100.23-38.49 98.76-37.26 96.24-37.26L96.24-37.26Q93.72-37.26 92.25-38.49 90.78-39.72 90.78-41.88L90.78-41.88Q90.78-44.04 92.25-45.27 93.72-46.5 96.24-46.5ZM100.92-31.68L100.92-31.68 100.92-5.58Q100.92-3.06 101.79-2.16 102.66-1.26 104.76-1.26L104.76-1.26 104.76 0Q103.68-0.06 101.4-0.15 99.12-0.24 96.78-0.24L96.78-0.24Q94.44-0.24 92.04-0.15 89.64-0.06 88.44 0L88.44 0 88.44-1.26Q90.54-1.26 91.41-2.16 92.28-3.06 92.28-5.58L92.28-5.58 92.28-24.48Q92.28-27.18 91.47-28.47 90.66-29.76 88.44-29.76L88.44-29.76 88.44-31.02Q90.36-30.84 92.16-30.84L92.16-30.84Q94.68-30.84 96.87-31.05 99.06-31.26 100.92-31.68ZM119.22-31.86L119.22-31.86Q121.74-31.86 123.63-31.23 125.52-30.6 126.36-30L126.36-30Q128.4-28.62 128.88-31.8L128.88-31.8 130.14-31.8Q130.02-30.12 129.96-27.69 129.9-25.26 129.9-21.24L129.9-21.24 128.64-21.24Q128.34-23.46 127.5-25.62 126.66-27.78 125.07-29.16 123.48-30.54 120.96-30.54L120.96-30.54Q119.22-30.54 118.02-29.55 116.82-28.56 116.82-26.7L116.82-26.7Q116.82-24.9 117.9-23.55 118.98-22.2 120.69-20.97 122.4-19.74 124.26-18.36L124.26-18.36Q127.26-16.14 129.33-13.89 131.4-11.64 131.4-8.04L131.4-8.04Q131.4-5.34 129.84-3.33 128.28-1.32 125.73-0.24 123.18 0.84 120.06 0.84L120.06 0.84Q118.26 0.84 116.85 0.48 115.44 0.12 114.42-0.42L114.42-0.42Q113.64-0.78 112.95-1.11 112.26-1.44 111.66-1.68L111.66-1.68Q111.06-1.86 110.61-1.26 110.16-0.66 109.92 0.42L109.92 0.42 108.66 0.42Q108.78-1.5 108.84-4.26 108.9-7.02 108.9-11.58L108.9-11.58 110.16-11.58Q110.52-8.34 111.48-5.85 112.44-3.36 114.09-1.95 115.74-0.54 118.26-0.54L118.26-0.54Q119.82-0.54 121.14-1.53 122.46-2.52 122.46-4.8L122.46-4.8Q122.46-7.44 120.75-9.18 119.04-10.92 116.4-12.96L116.4-12.96Q114.48-14.52 112.77-16.05 111.06-17.58 109.98-19.41 108.9-21.24 108.9-23.58L108.9-23.58Q108.9-26.28 110.34-28.14 111.78-30 114.15-30.93 116.52-31.86 119.22-31.86Z"></path>
                        </g>
                    </g>
                </g>
            </g>
        </g>
    </g>

</svg>